<?xml version="1.0" encoding="UTF-8"?>
<svg version="1.1" xmlns="http://www.w3.org/2000/svg" width="980" height="982">
<path d="M0 0 C13.48172502 -0.06416847 26.95879124 0.09231978 40.43835449 0.32873535 C42.69448437 0.36696386 44.95067393 0.40182734 47.20690918 0.43322754 C59.71847932 0.60785835 72.17595318 0.99595912 84.65515137 1.94494629 C85.69233307 2.0236496 86.72951477 2.10235291 87.79812622 2.18344116 C168.21235716 8.77740972 251.80416626 45.47594023 315.71374512 94.01135254 C317.13024085 95.07538222 318.54691368 96.13917617 319.96374512 97.20275879 C331.79272186 106.12340419 343.08769072 115.4801736 353.98327637 125.52697754 C356.0780899 127.43298814 358.19697235 129.2824838 360.34655762 131.12463379 C365.21456521 135.37276458 369.7758606 139.92296717 374.33215332 144.49938965 C375.77399733 145.94659639 377.22111627 147.3883728 378.66882324 148.82971191 C383.89683666 154.05364007 388.92544073 159.38162092 393.71374512 165.01135254 C394.66283727 166.09463716 395.61330504 167.17671849 396.56530762 168.25744629 C404.36581938 177.20014106 411.63785389 186.48748355 418.71374512 196.01135254 C419.26208008 196.74934082 419.81041504 197.4873291 420.37536621 198.24768066 C432.06635113 214.05540301 442.64667084 230.37836793 452.3001709 247.50598145 C453.24643102 249.18310085 454.19798039 250.85724642 455.15466309 252.52844238 C491.28028078 315.73922082 513.8582967 389.62401993 513.88171387 462.48400879 C513.88493543 464.85749836 513.88830014 467.23098775 513.89179993 469.60447693 C513.89776101 474.56424418 513.899643 479.52399408 513.89904785 484.48376465 C513.89894652 490.7813759 513.91258302 497.0788737 513.92982006 503.37645817 C513.9410413 508.27638745 513.94296396 513.1762902 513.94243813 518.076231 C513.94360366 520.39501778 513.94794323 522.71380557 513.95577049 525.03257942 C514.01716838 545.10185061 512.88491718 564.609443 508.65124512 584.26135254 C508.50168365 584.97036713 508.35212219 585.67938171 508.19802856 586.40988159 C490.97916521 667.80518099 455.1461168 744.10204523 401.71374512 808.01135254 C401.27868652 808.53277832 400.84362793 809.0542041 400.39538574 809.59143066 C386.3590406 826.35981477 371.40512677 843.17878877 354.67858887 857.32385254 C352.25416782 859.40605909 349.9302448 861.58637461 347.58874512 863.76135254 C341.80945917 869.02392104 335.75573766 873.85580919 329.54968262 878.6036377 C327.76329945 879.97335649 325.98835034 881.3568964 324.21374512 882.74182129 C304.23295181 898.18091262 282.77393248 911.76596479 260.71374512 924.01135254 C259.84121094 924.49652344 258.96867676 924.98169434 258.06970215 925.48156738 C214.080253 949.71962854 164.06385837 967.54859621 114.71374512 976.88635254 C113.71399658 977.07745605 112.71424805 977.26855957 111.6842041 977.4654541 C92.10333317 980.93935248 72.36295187 981.43304146 52.52624512 981.69885254 C51.22837067 981.71814819 49.93049622 981.73744385 48.59329224 981.75732422 C-31.78072286 982.91824335 -105.43190645 974.82303843 -179.28625488 941.01135254 C-180.33023437 940.53343262 -181.37421387 940.0555127 -182.4498291 939.56311035 C-215.7877286 924.16545667 -247.23457553 905.51562238 -276.28625488 883.01135254 C-276.84651367 882.58112793 -277.40677246 882.15090332 -277.98400879 881.7076416 C-285.7134278 875.76777174 -293.10480197 869.61120892 -300.28625488 863.01135254 C-301.5740767 861.88195325 -302.8656091 860.75676754 -304.16125488 859.63635254 C-312.56657482 852.28588351 -320.6889476 844.70339271 -328.59875488 836.82385254 C-329.25617676 836.17102295 -329.91359863 835.51819336 -330.59094238 834.84558105 C-335.02530659 830.39721948 -339.19058396 825.77125077 -343.28625488 821.01135254 C-344.33189726 819.82016523 -345.37874054 818.63003084 -346.42687988 817.44104004 C-353.67064253 809.1782279 -360.6357916 800.75898595 -367.28625488 792.01135254 C-367.71051758 791.45608887 -368.13478027 790.9008252 -368.57189941 790.32873535 C-425.90639913 714.91736515 -466.42406264 618.90816152 -466.45422363 523.26916504 C-466.45744477 520.85419699 -466.46080946 518.43922913 -466.46430969 516.02426147 C-466.47027573 510.97275339 -466.47215233 505.92126234 -466.47155762 500.86975098 C-466.47145644 494.46132946 -466.48507442 488.05301984 -466.50232983 481.64462471 C-466.5135642 476.65625528 -466.51547331 471.66791187 -466.51494789 466.6795311 C-466.51611219 464.32053113 -466.52044439 461.96153012 -466.52828026 459.60254288 C-466.58655692 440.23843731 -466.11819665 420.73611511 -462.22375488 401.69885254 C-462.0117041 400.64149902 -461.79965332 399.58414551 -461.58117676 398.49475098 C-451.89786792 351.88879777 -435.50181605 307.55930822 -414.28625488 265.01135254 C-413.80043945 264.03569336 -413.31462402 263.06003418 -412.81408691 262.05480957 C-394.34698479 225.22549698 -370.9554638 192.71802153 -342.86779785 162.70617676 C-341.22026261 160.94063343 -339.58264913 159.16627354 -337.94641113 157.39025879 C-317.33316587 135.06994267 -317.33316587 135.06994267 -306.42687988 125.87072754 C-303.99566098 123.75893885 -301.65484655 121.56417101 -299.30822754 119.35925293 C-292.84365667 113.28785599 -286.2290709 107.53574378 -279.28625488 102.01135254 C-278.08736305 101.0333801 -276.88950834 100.05413537 -275.69250488 99.07385254 C-268.15280757 92.92470092 -260.51028307 87.22988982 -252.28625488 82.01135254 C-250.87585177 81.10027625 -249.46571488 80.18878775 -248.05578613 79.27697754 C-192.64282743 43.64221863 -131.55716451 19.98443858 -67.28625488 6.01135254 C-66.13012695 5.75837402 -64.97399902 5.50539551 -63.78283691 5.24475098 C-42.50375456 0.72893286 -21.65190509 0.10751386 0 0 Z M-56.53625488 65.69885254 C-57.73403564 65.95448975 -58.93181641 66.21012695 -60.16589355 66.47351074 C-93.98560688 73.87743493 -126.71562299 84.85187519 -158.28625488 99.01135254 C-159.13929199 99.38969238 -159.9923291 99.76803223 -160.87121582 100.15783691 C-201.40702464 118.24229467 -241.49781136 145.01697064 -272.39611816 177.12414551 C-274.2008443 178.92607434 -276.06660813 180.57180209 -278.01281738 182.21838379 C-282.36829936 186.00305758 -286.30482451 190.09438886 -290.22375488 194.32385254 C-290.92395752 195.07513428 -291.62416016 195.82641602 -292.34558105 196.60046387 C-294.33000052 198.73358243 -296.30841146 200.87213918 -298.28625488 203.01135254 C-299.59723145 204.4151416 -299.59723145 204.4151416 -300.93469238 205.84729004 C-306.57474509 211.97601158 -311.70183652 218.4650618 -316.77990723 225.0592041 C-318.35374932 227.09882183 -319.9388015 229.12940844 -321.52453613 231.15979004 C-328.53955565 240.18249595 -335.18696286 249.3442425 -341.28625488 259.01135254 C-341.73791016 259.72533203 -342.18956543 260.43931152 -342.65490723 261.17492676 C-382.06406209 323.98368951 -408.16104794 399.95727464 -408.48937988 474.72229004 C-408.49643951 475.80049011 -408.50349915 476.87869019 -408.51077271 477.98956299 C-408.62629222 500.83123808 -408.69162003 523.37928966 -405.28625488 546.01135254 C-405.08550733 547.38585492 -404.88482659 548.76036706 -404.6842041 550.1348877 C-396.02547724 608.62216046 -374.6106387 661.4562963 -348.28625488 714.01135254 C-344.62899427 712.48679971 -342.43627562 710.30437273 -339.72375488 707.44885254 C-290.94450544 657.81632177 -215.63361434 630.72608182 -151.78694153 606.84634399 C-147.91534001 605.39697327 -144.05692219 603.93574594 -140.23937988 602.34875488 C-139.09984863 601.8803418 -137.96031738 601.41192871 -136.78625488 600.92932129 C-135.84781738 600.52866455 -134.90937988 600.12800781 -133.94250488 599.71520996 C-130.69119019 598.85367133 -128.52245374 599.17012671 -125.28625488 600.01135254 C-122.89953613 601.76135254 -122.89953613 601.76135254 -120.59875488 604.01135254 C-115.88487253 608.45986077 -111.04015891 612.62058233 -105.97375488 616.66271973 C-104.76233439 617.63087465 -103.55440231 618.60340061 -102.34875488 619.57873535 C-70.50414743 645.28909706 -33.76130887 665.39611129 7.83874512 666.63635254 C8.56084167 666.65814575 9.28293823 666.67993896 10.0269165 666.70239258 C40.17556606 667.909794 40.17556606 667.909794 69.71374512 663.01135254 C70.39340332 662.81412598 71.07306152 662.61689941 71.77331543 662.41369629 C96.14940005 655.17992262 118.52047746 643.41549341 138.71374512 628.01135254 C139.28931152 627.57323242 139.86487793 627.1351123 140.45788574 626.68371582 C146.95644719 621.70948618 153.29416132 616.56488418 159.52624512 611.26135254 C160.06467041 610.80607178 160.6030957 610.35079102 161.15783691 609.88171387 C163.55434731 607.85475018 165.93411979 605.81546394 168.28015137 603.73010254 C169.0419873 603.08041504 169.80382324 602.43072754 170.58874512 601.76135254 C171.22554199 601.19932129 171.86233887 600.63729004 172.51843262 600.05822754 C176.35651299 598.22796857 180.21532472 599.53165031 184.10910034 600.77819824 C186.93637376 601.79854182 189.74010453 602.86822062 192.54187012 603.95666504 C193.59150436 604.35842957 194.64113861 604.76019409 195.72257996 605.1741333 C199.13977952 606.48604686 202.55208125 607.8101152 205.96374512 609.13635254 C207.13067902 609.58786682 208.29761292 610.0393811 209.49990845 610.50457764 C238.48899851 621.72922329 266.93001342 633.75372162 294.78356934 647.56164551 C297.2446734 648.7792789 299.71211507 649.9810011 302.18640137 651.17150879 C334.4446076 666.79131453 366.44435311 685.88787873 391.46374512 711.86682129 C393.43698514 714.24133172 393.43698514 714.24133172 395.71374512 714.01135254 C423.11225109 660.26069952 445.76790169 606.57910724 452.71374512 546.01135254 C452.83233887 544.98783691 452.95093262 543.96432129 453.07312012 542.90979004 C456.86412412 507.97839601 456.57894604 470.9347033 452.71374512 436.01135254 C452.58483887 434.83927246 452.45593262 433.66719238 452.32312012 432.45959473 C447.0445855 386.48013693 432.71046433 344.58186236 412.71374512 303.01135254 C412.27143555 302.08822266 411.82912598 301.16509277 411.37341309 300.21398926 C398.73819131 273.98118132 383.13099514 248.60755719 364.71374512 226.01135254 C363.69060293 224.72439187 362.66853987 223.43657283 361.64733887 222.14807129 C355.10060198 213.9351406 348.2672484 206.09953798 341.06433105 198.45910645 C339.03337919 196.28203766 337.06366525 194.05170104 335.08874512 191.82385254 C328.71104804 184.71958238 322.01231366 177.97691211 314.75280762 171.77307129 C312.48682282 169.81529515 310.29231018 167.78906306 308.08874512 165.76135254 C302.435208 160.66191401 296.47658442 156.00306161 290.45007324 151.35803223 C288.8448679 150.11305013 287.25512675 148.84819789 285.66687012 147.58166504 C271.24384175 136.18523071 255.67984222 126.10813744 239.71374512 117.01135254 C238.95674316 116.57677734 238.19974121 116.14220215 237.4197998 115.69445801 C191.64371064 89.5768677 141.54826789 70.62926783 89.15124512 63.69885254 C88.04434326 63.55157715 86.93744141 63.40430176 85.79699707 63.25256348 C62.88082308 60.49247426 39.82468105 59.65621508 16.76184082 59.69567871 C12.88420124 59.69886655 9.00730872 59.67512891 5.12976074 59.65002441 C-15.71975401 59.5965413 -36.13796035 61.27063183 -56.53625488 65.69885254 Z " fill="#020202" transform="translate(466.2862548828125,-0.0113525390625)"/>
<path d="M0 0 C48.72443786 -1.0103088 94.88311867 16.88872701 131.14453125 49.12109375 C131.6653125 49.57484375 132.18609375 50.02859375 132.72265625 50.49609375 C139.07139459 56.02766775 144.80787494 61.75839678 150.015625 68.41015625 C151.38076444 70.1485173 152.78706675 71.8557619 154.2421875 73.51953125 C191.81648254 116.75383806 201.9642659 173.69704717 198.14453125 229.12109375 C193.7940699 283.94527307 169.73828732 338.66034455 135.14453125 381.12109375 C134.70206055 381.66652832 134.25958984 382.21196289 133.80371094 382.77392578 C121.77542839 397.48504937 108.53052155 410.93087159 93.14453125 422.12109375 C92.08878906 422.89839844 91.03304688 423.67570312 89.9453125 424.4765625 C65.12662996 442.21291496 37.30844585 453.58039381 6.45703125 453.43359375 C5.22750732 453.4286792 3.9979834 453.42376465 2.73120117 453.41870117 C-6.79183096 453.2965548 -15.62872302 452.43245906 -24.85546875 450.12109375 C-25.52481445 449.96012207 -26.19416016 449.79915039 -26.88378906 449.63330078 C-76.48976207 437.47130881 -117.27418519 398.47150261 -143.22705078 355.86962891 C-149.2264587 345.87890505 -154.86193025 335.72741221 -159.86523438 325.20068359 C-160.53885327 323.78601748 -161.22014933 322.37498705 -161.90820312 320.96728516 C-173.43555679 297.30723654 -181.18190826 271.98786942 -185.85546875 246.12109375 C-186.03190918 245.1460791 -186.20834961 244.17106445 -186.39013672 243.16650391 C-195.80320272 188.3393593 -184.54732911 129.9926007 -152.53759766 84.23730469 C-147.77965308 77.65881931 -142.5693197 71.48584794 -137.06640625 65.51953125 C-135.57156086 63.89791452 -134.09794964 62.25650481 -132.64453125 60.59765625 C-101.95256965 25.59805092 -55.87572982 4.64704975 -9.98046875 0.37109375 C-6.6542539 0.19282603 -3.32939898 0.10457079 0 0 Z " fill="#010101" transform="translate(484.85546875,170.87890625)"/>
<path d="M0 0 C0.66 0.33 1.32 0.66 2 1 C-12.52 15.52 -27.04 30.04 -42 45 C-42.66 44.67 -43.32 44.34 -44 44 C-19.12444973 17.11947504 -19.12444973 17.11947504 -7.65234375 7.4296875 C-4.95471212 5.09556651 -2.49013258 2.5523859 0 0 Z " fill="#676767" transform="translate(168,118)"/>
<path d="M0 0 C0.66 0.33 1.32 0.66 2 1 C-4.93 7.93 -11.86 14.86 -19 22 C-19.66 21.67 -20.32 21.34 -21 21 C-14.63570899 13.94624413 -8.3566237 7.04654003 -1 1 C-0.67 0.67 -0.34 0.34 0 0 Z " fill="#6A6A6A" transform="translate(369,215)"/>
</svg>
